<mxfile host="app.diagrams.net" modified="2023-05-12T11:31:38.297Z" agent="Mozilla/5.0 (Windows NT 10.0; Win64; x64) AppleWebKit/537.36 (KHTML, like Gecko) Chrome/113.0.0.0 Safari/537.36" version="21.2.9" etag="r2NUDIMq7tV2wLwc8K2V" type="github">
  <diagram name="Page-1" id="MyR9efVno-x_nqSfi7XU">
    <mxGraphModel>
      <root>
        <mxCell id="0" />
        <mxCell id="1" parent="0" />
      </root>
    </mxGraphModel>
  </diagram>
</mxfile>
